#!OML:ASF F:\VICON\USERDATA\INSTALL\rory3\rory3.ASF
:FULLY-SPECIFIED
:DEGREES
223
root 0.408836 17.1145 4.17092 2.68281 -57.3218 11.1516
lowerback -7.53679 1.21553 8.12001
upperback -4.29774 1.04554 -2.37445
thorax -0.0757701 0.331849 -6.99123
lowerneck -10.7756 9.18884 0.478131
upperneck 41.0464 14.4183 -3.40254
head 17.1303 5.19382 0.754217
rclavicle -1.12267e-014 3.97569e-015
rhumerus 7.88574 8.23998 -21.8913
rradius 111.76
rwrist -49.256
rhand -2.22621 -42.0338
rfingers 7.12502
rthumb 23.4564 -70.6239
lclavicle -1.12267e-014 3.97569e-015
lhumerus 30.6708 3.1798 14.2491
lradius 62.8539
lwrist 58.1646
lhand -18.9934 -16.9988
lfingers 7.12502
lthumb 7.31149 12.8548
rfemur -11.6157 3.71363 -3.09348
rtibia 40.3191
rfoot -1.86212 -15.3666
rtoes -25.984
lfemur -26.4477 -6.69669 -31.4203
ltibia 30.6805
lfoot -15.2137 -4.24308
ltoes 23.3773
224
root 0.41556 17.1137 4.16675 2.69512 -57.1947 11.1004
lowerback -7.50893 1.18874 8.15365
upperback -4.23766 1.0103 -2.38276
thorax -0.0342819 0.318372 -7.02219
lowerneck -10.824 9.1514 0.472649
upperneck 41.2126 14.3793 -3.41622
head 17.2377 5.16077 0.747543
rclavicle 9.20702e-014 1.35174e-014
rhumerus 7.91905 8.61429 -22.4503
rradius 111.428
rwrist -49.067
rhand -1.98794 -41.9991
rfingers 7.12502
rthumb 23.685 -70.5599
lclavicle 9.20702e-014 1.35174e-014
lhumerus 30.5533 2.82751 14.1141
lradius 63.2879
lwrist 58.4838
lhand -19.267 -16.2461
lfingers 7.12502
lthumb 7.04746 13.6166
rfemur -11.5998 3.79554 -3.04517
rtibia 40.344
rfoot -1.79233 -15.288
rtoes -26.6611
lfemur -26.472 -6.78406 -31.4373
ltibia 30.736
lfoot -15.2831 -4.06132
ltoes 23.1423
225
root 0.422205 17.1135 4.16427 2.70493 -56.9333 11.1207
lowerback -7.60395 1.20017 8.22807
upperback -4.13702 1.01341 -2.48684
thorax 0.126205 0.329761 -7.1747
lowerneck -11.0551 9.07871 0.601595
upperneck 41.4625 14.2676 -3.42195
head 17.4509 5.1093 0.723178
rclavicle 3.68373e-014 -2.70347e-014
rhumerus 7.72169 8.84903 -22.9505
rradius 111.163
rwrist -48.8486
rhand -2.30013 -42.2559
rfingers 7.12502
rthumb 23.3855 -70.8552
lclavicle 3.68373e-014 -2.70347e-014
lhumerus 30.6017 2.5142 13.3363
lradius 63.8189
lwrist 59.3784
lhand -19.9119 -15.2602
lfingers 7.12502
lthumb 6.42488 14.6223
rfemur -11.5504 3.64982 -3.04532
rtibia 40.3372
rfoot -1.43157 -15.1459
rtoes -27.611
lfemur -26.5417 -7.07127 -31.4451
ltibia 30.8085
lfoot -15.2562 -4.00996
ltoes 23.0126
226
root 0.428743 17.112 4.1621 2.76227 -56.7131 11.047
lowerback -7.61091 1.19339 8.28837
upperback -4.06364 1.00054 -2.54754
thorax 0.20575 0.329119 -7.27511
lowerneck -11.2296 9.02821 0.7305
upperneck 41.6951 14.186 -3.43425
head 17.644 5.07214 0.696791
rclavicle 2.10153e-014 1.19271e-014
rhumerus 7.52031 9.1829 -23.3474
rradius 111.1
rwrist -48.7996
rhand -2.91519 -42.6115
rfingers 7.12502
rthumb 22.7954 -71.2846
lclavicle 2.10153e-014 1.19271e-014
lhumerus 30.8161 2.11501 14.0697
lradius 63.6935
lwrist 58.686
lhand -19.8223 -15.8667
lfingers 7.12502
lthumb 6.51135 14.0132
rfemur -11.4327 3.69936 -3.03385
rtibia 40.3201
rfoot -1.75092 -14.933
rtoes -26.9398
lfemur -26.583 -7.23649 -31.4137
ltibia 30.8634
lfoot -15.1879 -4.04625
ltoes 23.1745
227
root 0.434422 17.111 4.15743 2.93169 -56.5709 10.8836
lowerback -7.6823 1.12287 8.37628
upperback -3.9859 0.894794 -2.60229
thorax 0.308013 0.28261 -7.39267
lowerneck -11.3618 9.00585 0.826449
upperneck 41.8518 14.1255 -3.40819
head 17.7749 5.04876 0.691803
rclavicle -3.97383e-014 1.27222e-014
rhumerus 7.53071 9.6048 -23.8894
rradius 111.077
rwrist -48.5697
rhand -3.50119 -43.0074
rfingers 7.12502
rthumb 22.2329 -71.7486
lclavicle -3.97383e-014 1.27222e-014
lhumerus 30.6403 1.82437 14.3812
lradius 63.6546
lwrist 58.295
lhand -19.5008 -17.0181
lfingers 7.12502
lthumb 6.82173 12.852
rfemur -11.3884 3.8865 -2.97918
rtibia 40.317
rfoot -2.23382 -14.718
rtoes -25.6713
lfemur -26.6707 -7.29463 -31.3096
ltibia 30.8977
lfoot -15.1405 -4.19543
ltoes 23.7749
